<svg width="30" height="30" viewBox="0 0 30 30" fill="none" xmlns="http://www.w3.org/2000/svg">
<path d="M29.9218 11.6458C29.3492 12.2608 28.7938 12.8757 28.2143 13.4657C26.6577 15.0546 25.084 16.6293 23.5171 18.2075C23.2702 18.4563 23.0062 18.6944 22.7799 18.9681C22.6908 19.0783 22.6325 19.2738 22.6565 19.4125C23.2257 22.9208 23.8051 26.4255 24.3845 29.9338C24.388 29.948 24.3845 29.9658 24.3811 29.9907C24.3743 30.0227 24.2303 29.9694 24.0554 29.8734C23.4485 29.5464 22.8519 29.2229 22.2554 28.8959C19.893 27.6092 17.5273 26.3224 15.1718 25.025C14.9661 24.9113 14.8255 24.9646 14.6473 25.0606C11.6952 26.6743 8.74316 28.2845 5.78769 29.8947C5.73626 29.9232 5.68483 29.948 5.62997 29.9729C5.54083 30.0156 5.49625 29.8841 5.53054 29.6815C5.66426 28.8533 5.79112 28.0464 5.92483 27.2431C6.36027 24.6127 6.80599 21.9859 7.23114 19.3556C7.25171 19.2312 7.16599 19.0463 7.07342 18.9504C5.54083 17.3864 3.98766 15.8473 2.46878 14.2691C1.63905 13.4053 0.850469 12.4989 0.0755995 11.6352C-0.0581168 11.4859 -0.0101159 11.3401 0.185316 11.3082C0.593322 11.2442 1.06647 11.1695 1.54305 11.0984C3.61737 10.7856 5.69512 10.4728 7.76943 10.1565C8.46544 10.0499 9.15802 9.92545 9.85746 9.8508C10.1215 9.82237 10.2483 9.70862 10.358 9.47402C11.8049 6.41359 13.2621 3.3567 14.7158 0.299815C14.7467 0.232279 14.781 0.168297 14.8187 0.097207C14.877 -0.012983 14.9661 -0.0343101 15.021 0.0581074C15.0553 0.11498 15.0861 0.168298 15.1135 0.22517C16.5844 3.31405 18.0587 6.40292 19.5228 9.49891C19.629 9.72284 19.749 9.81881 19.9959 9.85436C23.0405 10.3058 26.0817 10.7714 29.1263 11.2335C29.3561 11.2691 29.5858 11.301 29.8155 11.333C30.0109 11.3544 30.0589 11.4965 29.9218 11.6458Z" fill="#FFF500"/>
</svg>
