<svg width="12" height="12" viewBox="0 0 12 12" fill="none" xmlns="http://www.w3.org/2000/svg">
<path d="M1.58161 10.7471H10.4232C11.0412 10.7471 11.4396 10.0955 11.16 9.54471L6.73921 1.71111C6.43441 1.10151 5.56201 1.10151 5.25721 1.71111L0.836409 9.54471C0.565209 10.0943 0.963609 10.7471 1.58161 10.7471ZM6.69601 8.92551C6.69601 9.33231 6.39961 9.64551 5.97601 9.64551C5.55241 9.64551 5.25601 9.33231 5.25601 8.92551V8.90871C5.25601 8.50191 5.55241 8.18871 5.97601 8.18871C6.39961 8.18871 6.69601 8.50191 6.69601 8.90871V8.92551ZM5.58721 3.63351H6.41761C6.64561 3.63351 6.78121 3.82791 6.75601 4.07391L6.39121 7.25751C6.36601 7.48671 6.21361 7.62951 6.00121 7.62951C5.79001 7.62951 5.63641 7.48551 5.61121 7.25751L5.24641 4.07391C5.22361 3.82791 5.35921 3.63351 5.58721 3.63351Z" fill="black"/>
</svg>
