<svg width="19" height="19" viewBox="0 0 19 19" fill="none" xmlns="http://www.w3.org/2000/svg">
<path d="M15.1278 5.88238L16.302 4.46498C16.397 4.35288 16.3799 4.18378 16.2678 4.08878L15.3691 3.34398C15.257 3.24898 15.0879 3.26608 14.9929 3.37818L12.9181 5.88238C12.8231 5.99448 12.6293 6.08758 12.4811 6.08758H6.5189C6.3707 6.08758 6.1769 5.99638 6.0819 5.88238L4.0052 3.38008C3.9102 3.26798 3.743 3.25088 3.629 3.34588L2.7322 4.09068C2.6201 4.18568 2.603 4.35288 2.698 4.46688L3.8741 5.88238C3.9691 5.99448 3.9254 6.08758 3.7772 6.08758H1.4535C1.3053 6.08758 1.1875 6.20728 1.1875 6.35358V8.24788C1.1875 8.39608 1.3072 8.51388 1.4535 8.51388H2.6505C2.7987 8.51388 2.9355 8.63168 2.9583 8.77798L3.9805 15.4603C4.0014 15.6066 4.1401 15.7244 4.2883 15.7244H14.7117C14.8599 15.7244 14.9967 15.6066 15.0195 15.4603L16.0436 8.77988C16.0645 8.63358 16.2032 8.51578 16.3514 8.51578H17.5484C17.6966 8.51578 17.8144 8.39608 17.8144 8.24978V6.35548C17.8144 6.20728 17.6947 6.08948 17.5484 6.08948H15.2228C15.0765 6.08568 15.0328 5.99448 15.1278 5.88238ZM6.5626 14.0999H5.9432C5.795 14.0999 5.662 13.9821 5.6449 13.8358L5.1034 9.38788C5.0844 9.24158 5.1889 9.12378 5.3371 9.12378H6.5645C6.7127 9.12378 6.8305 9.24348 6.8305 9.38978V13.8358C6.8286 13.9802 6.7089 14.0999 6.5626 14.0999ZM10.2372 14.0999H9.0098C8.8616 14.0999 8.7438 13.9802 8.7438 13.8339V9.38788C8.7438 9.23968 8.8635 9.12188 9.0098 9.12188H10.2372C10.3854 9.12188 10.5032 9.24158 10.5032 9.38788V13.8339C10.5032 13.9802 10.3835 14.0999 10.2372 14.0999ZM13.3627 14.0999H12.7414C12.5932 14.0999 12.4754 13.9802 12.4754 13.8339V9.38788C12.4754 9.23968 12.5951 9.12188 12.7414 9.12188H13.9688C14.117 9.12188 14.2215 9.23968 14.2025 9.38598L13.661 13.8358C13.6439 13.9821 13.509 14.0999 13.3627 14.0999Z" fill="black"/>
</svg>
