<svg width="24" height="24" viewBox="0 0 24 24" fill="none" xmlns="http://www.w3.org/2000/svg">
<path d="M23.9374 9.31667C23.4794 9.80861 23.035 10.3006 22.5715 10.7726C21.3262 12.0437 20.0672 13.3034 18.8137 14.566C18.6162 14.765 18.405 14.9556 18.224 15.1745C18.1526 15.2627 18.106 15.4191 18.1252 15.53C18.5805 18.3366 19.0441 21.1404 19.5076 23.9471C19.5104 23.9584 19.5076 23.9727 19.5049 23.9926C19.4994 24.0182 19.3842 23.9755 19.2443 23.8987C18.7588 23.6371 18.2816 23.3783 17.8043 23.1167C15.9144 22.0873 14.0218 21.058 12.1375 20.02C11.9729 19.929 11.8604 19.9717 11.7178 20.0485C9.35617 21.3395 6.99453 22.6276 4.63015 23.9158C4.58901 23.9385 4.54786 23.9584 4.50398 23.9783C4.43266 24.0125 4.397 23.9073 4.42443 23.7452C4.53141 23.0826 4.63289 22.4371 4.73987 21.7944C5.08821 19.6902 5.44479 17.5887 5.78491 15.4845C5.80137 15.3849 5.7328 15.2371 5.65874 15.1603C4.43266 13.9091 3.19013 12.6778 1.97502 11.4153C1.31124 10.7243 0.680375 9.99914 0.0604796 9.30814C-0.0464935 9.18871 -0.00809276 9.07212 0.148253 9.04653C0.474658 8.99534 0.853178 8.93562 1.23444 8.87875C2.89389 8.62851 4.55609 8.37828 6.21555 8.12519C6.77235 8.03989 7.32642 7.94036 7.88597 7.88064C8.09717 7.85789 8.19866 7.7669 8.28644 7.57922C9.44394 5.13087 10.6097 2.68536 11.7727 0.239852C11.7973 0.185823 11.8248 0.134638 11.8549 0.0777656C11.9016 -0.0103864 11.9729 -0.0274481 12.0168 0.0464859C12.0442 0.0919837 12.0689 0.134638 12.0908 0.180136C13.2675 2.65124 14.447 5.12234 15.6182 7.59913C15.7032 7.77827 15.7992 7.85505 15.9967 7.88349C18.4324 8.24463 20.8654 8.61714 23.3011 8.98681C23.4848 9.01525 23.6686 9.04084 23.8524 9.06643C24.0087 9.08349 24.0471 9.19724 23.9374 9.31667Z" fill="#FFF500"/>
</svg>
