<svg width="15" height="15" viewBox="0 0 15 15" fill="none" xmlns="http://www.w3.org/2000/svg">
<path d="M14.9609 5.82292C14.6746 6.13038 14.3969 6.43785 14.1072 6.73287C13.3289 7.52731 12.542 8.31463 11.7586 9.10374C11.6351 9.22814 11.5031 9.34722 11.39 9.48407C11.3454 9.53916 11.3163 9.63691 11.3283 9.70623C11.6128 11.4604 11.9026 13.2128 12.1923 14.9669C12.194 14.974 12.1923 14.9829 12.1906 14.9953C12.1871 15.0113 12.1151 14.9847 12.0277 14.9367C11.7243 14.7732 11.426 14.6115 11.1277 14.448C9.94652 13.8046 8.76365 13.1612 7.58592 12.5125C7.48306 12.4556 7.41277 12.4823 7.32363 12.5303C5.8476 13.3372 4.37158 14.1423 2.89384 14.9474C2.86813 14.9616 2.84241 14.974 2.81499 14.9865C2.77041 15.0078 2.74813 14.942 2.76527 14.8407C2.83213 14.4266 2.89556 14.0232 2.96242 13.6215C3.18013 12.3064 3.40299 10.993 3.61557 9.67779C3.62585 9.61559 3.583 9.52317 3.53671 9.47518C2.77041 8.69319 1.99383 7.92364 1.23439 7.13453C0.819526 6.70266 0.425234 6.24946 0.0377997 5.81759C-0.0290584 5.74294 -0.00505797 5.67007 0.0926578 5.65408C0.296661 5.62209 0.533236 5.58476 0.771525 5.54922C1.80868 5.39282 2.84756 5.23642 3.88472 5.07825C4.23272 5.02493 4.57901 4.96272 4.92873 4.9254C5.06073 4.91118 5.12416 4.85431 5.17902 4.73701C5.90246 3.20679 6.63104 1.67835 7.35791 0.149907C7.37334 0.116139 7.39048 0.0841487 7.40934 0.0486035C7.43849 -0.00649151 7.48306 -0.017155 7.51049 0.0290537C7.52763 0.0574898 7.54306 0.0841488 7.55677 0.112585C8.29221 1.65702 9.02937 3.20146 9.76138 4.74945C9.81452 4.86142 9.87452 4.90941 9.99795 4.92718C11.5203 5.15289 13.0409 5.38571 14.5632 5.61676C14.678 5.63453 14.7929 5.65052 14.9077 5.66652C15.0055 5.67718 15.0295 5.74827 14.9609 5.82292Z" fill="#FFF500"/>
</svg>
