<svg width="1527" height="740" viewBox="0 0 1527 740" fill="none" xmlns="http://www.w3.org/2000/svg">
<g filter="url(#filter0_f_22_442)">
<ellipse cx="1127" cy="376" rx="119" ry="114" fill="#3CCFCF" fill-opacity="0.3"/>
</g>
<rect x="250" y="200" width="1044" height="318.163" fill="white"/>
<rect x="255" y="205" width="1034" height="308.163" stroke="#3D3D3D" stroke-opacity="0.1" stroke-width="10"/>
<g filter="url(#filter1_f_22_442)">
<path d="M1277 400.268C1277 448.714 1233.35 487.986 1179.5 487.986C1125.65 487.986 1082 448.714 1082 400.268C1082 351.823 1125.65 312.551 1179.5 312.551C1233.35 312.551 1277 351.823 1277 400.268Z" fill="#21625E" fill-opacity="0.3"/>
</g>
<g filter="url(#filter2_f_22_442)">
<path d="M1277 400.718C1277 449.163 1233.35 488.436 1179.5 488.436C1125.65 488.436 1082 449.163 1082 400.718C1082 352.273 1125.65 313 1179.5 313C1233.35 313 1277 352.273 1277 400.718Z" fill="#21625E" fill-opacity="0.3"/>
</g>
<g filter="url(#filter3_f_22_442)">
<ellipse cx="496" cy="375" rx="119" ry="114" fill="#7C1BAA" fill-opacity="0.3"/>
</g>
<g filter="url(#filter4_f_22_442)">
<path d="M322.5 345C322.5 407.96 434.722 478.5 369 478.5C303.278 478.5 250 427.46 250 364.5C250 301.54 303.278 250.5 369 250.5C434.722 250.5 322.5 282.04 322.5 345Z" fill="#7C1BAA" fill-opacity="0.3"/>
</g>
<path d="M409.29 356H406.59V346.01H395.61V356H392.91V334.58H395.61V343.64H406.59V334.58H409.29V356ZM428.766 347.93C428.766 349.27 428.586 350.46 428.226 351.5C427.886 352.52 427.386 353.39 426.726 354.11C426.086 354.83 425.296 355.38 424.356 355.76C423.436 356.12 422.406 356.3 421.266 356.3C420.206 356.3 419.226 356.12 418.326 355.76C417.426 355.38 416.646 354.83 415.986 354.11C415.326 353.39 414.806 352.52 414.426 351.5C414.066 350.46 413.886 349.27 413.886 347.93C413.886 346.15 414.186 344.65 414.786 343.43C415.386 342.19 416.246 341.25 417.366 340.61C418.486 339.95 419.816 339.62 421.356 339.62C422.816 339.62 424.096 339.95 425.196 340.61C426.316 341.25 427.186 342.19 427.806 343.43C428.446 344.65 428.766 346.15 428.766 347.93ZM416.616 347.93C416.616 349.19 416.776 350.29 417.096 351.23C417.436 352.15 417.956 352.86 418.656 353.36C419.356 353.86 420.246 354.11 421.326 354.11C422.406 354.11 423.296 353.86 423.996 353.36C424.696 352.86 425.206 352.15 425.526 351.23C425.866 350.29 426.036 349.19 426.036 347.93C426.036 346.65 425.866 345.56 425.526 344.66C425.186 343.76 424.666 343.07 423.966 342.59C423.286 342.09 422.396 341.84 421.296 341.84C419.656 341.84 418.466 342.38 417.726 343.46C416.986 344.54 416.616 346.03 416.616 347.93ZM445.88 343.97C445.88 344.97 445.58 345.75 444.98 346.31C444.38 346.87 443.61 347.25 442.67 347.45V347.57C443.67 347.71 444.54 348.07 445.28 348.65C446.02 349.21 446.39 350.09 446.39 351.29C446.39 351.97 446.26 352.6 446 353.18C445.76 353.76 445.38 354.26 444.86 354.68C444.34 355.1 443.67 355.43 442.85 355.67C442.03 355.89 441.04 356 439.88 356H432.95V339.92H439.85C440.99 339.92 442.01 340.05 442.91 340.31C443.83 340.55 444.55 340.97 445.07 341.57C445.61 342.15 445.88 342.95 445.88 343.97ZM443.66 351.29C443.66 350.37 443.31 349.71 442.61 349.31C441.91 348.91 440.88 348.71 439.52 348.71H435.59V353.87H439.58C440.9 353.87 441.91 353.68 442.61 353.3C443.31 352.9 443.66 352.23 443.66 351.29ZM443.21 344.3C443.21 343.54 442.93 342.99 442.37 342.65C441.83 342.29 440.94 342.11 439.7 342.11H435.59V346.52H439.22C440.52 346.52 441.51 346.34 442.19 345.98C442.87 345.62 443.21 345.06 443.21 344.3ZM456.446 339.62C457.826 339.62 459.006 339.92 459.986 340.52C460.986 341.12 461.746 341.97 462.266 343.07C462.806 344.15 463.076 345.42 463.076 346.88V348.47H452.066C452.106 350.29 452.566 351.68 453.446 352.64C454.346 353.58 455.596 354.05 457.196 354.05C458.216 354.05 459.116 353.96 459.896 353.78C460.696 353.58 461.516 353.3 462.356 352.94V355.25C461.536 355.61 460.726 355.87 459.926 356.03C459.126 356.21 458.176 356.3 457.076 356.3C455.556 356.3 454.206 355.99 453.026 355.37C451.866 354.75 450.956 353.83 450.296 352.61C449.656 351.37 449.336 349.86 449.336 348.08C449.336 346.32 449.626 344.81 450.206 343.55C450.806 342.29 451.636 341.32 452.696 340.64C453.776 339.96 455.026 339.62 456.446 339.62ZM456.416 341.78C455.156 341.78 454.156 342.19 453.416 343.01C452.696 343.81 452.266 344.93 452.126 346.37H460.316C460.316 345.45 460.176 344.65 459.896 343.97C459.616 343.29 459.186 342.76 458.606 342.38C458.046 341.98 457.316 341.78 456.416 341.78ZM480.189 333.26C480.109 334.26 479.859 335.1 479.439 335.78C479.039 336.46 478.439 336.97 477.639 337.31C476.839 337.65 475.799 337.82 474.519 337.82C473.219 337.82 472.169 337.65 471.369 337.31C470.589 336.97 470.019 336.47 469.659 335.81C469.299 335.13 469.079 334.28 468.999 333.26H471.459C471.559 334.34 471.839 335.07 472.299 335.45C472.779 335.81 473.539 335.99 474.579 335.99C475.499 335.99 476.219 335.8 476.739 335.42C477.279 335.02 477.599 334.3 477.699 333.26H480.189ZM469.659 349.73C469.659 349.91 469.649 350.17 469.629 350.51C469.629 350.83 469.619 351.18 469.599 351.56C469.579 351.92 469.559 352.27 469.539 352.61C469.519 352.93 469.499 353.19 469.479 353.39L478.089 339.92H481.329V356H478.869V346.52C478.869 346.2 478.869 345.78 478.869 345.26C478.889 344.74 478.909 344.23 478.929 343.73C478.949 343.21 478.969 342.82 478.989 342.56L470.439 356H467.169V339.92H469.659V349.73ZM508.256 339.92V356H486.446V339.92H489.086V353.78H496.016V339.92H498.656V353.78H505.616V339.92H508.256ZM515.89 349.73C515.89 349.91 515.88 350.17 515.86 350.51C515.86 350.83 515.85 351.18 515.83 351.56C515.81 351.92 515.79 352.27 515.77 352.61C515.75 352.93 515.73 353.19 515.71 353.39L524.32 339.92H527.56V356H525.1V346.52C525.1 346.2 525.1 345.78 525.1 345.26C525.12 344.74 525.14 344.23 525.16 343.73C525.18 343.21 525.2 342.82 525.22 342.56L516.67 356H513.4V339.92H515.89V349.73ZM538.887 339.62C540.267 339.62 541.447 339.92 542.427 340.52C543.427 341.12 544.187 341.97 544.707 343.07C545.247 344.15 545.517 345.42 545.517 346.88V348.47H534.507C534.547 350.29 535.007 351.68 535.887 352.64C536.787 353.58 538.037 354.05 539.637 354.05C540.657 354.05 541.557 353.96 542.337 353.78C543.137 353.58 543.957 353.3 544.797 352.94V355.25C543.977 355.61 543.167 355.87 542.367 356.03C541.567 356.21 540.617 356.3 539.517 356.3C537.997 356.3 536.647 355.99 535.467 355.37C534.307 354.75 533.397 353.83 532.737 352.61C532.097 351.37 531.777 349.86 531.777 348.08C531.777 346.32 532.067 344.81 532.647 343.55C533.247 342.29 534.077 341.32 535.137 340.64C536.217 339.96 537.467 339.62 538.887 339.62ZM538.857 341.78C537.597 341.78 536.597 342.19 535.857 343.01C535.137 343.81 534.707 344.93 534.567 346.37H542.757C542.757 345.45 542.617 344.65 542.337 343.97C542.057 343.29 541.627 342.76 541.047 342.38C540.487 341.98 539.757 341.78 538.857 341.78ZM568.504 342.14H563.254V356H560.644V342.14H555.454V339.92H568.504V342.14ZM577.588 339.62C578.968 339.62 580.148 339.92 581.128 340.52C582.128 341.12 582.888 341.97 583.408 343.07C583.948 344.15 584.218 345.42 584.218 346.88V348.47H573.208C573.248 350.29 573.708 351.68 574.588 352.64C575.488 353.58 576.738 354.05 578.338 354.05C579.358 354.05 580.258 353.96 581.038 353.78C581.838 353.58 582.658 353.3 583.498 352.94V355.25C582.678 355.61 581.868 355.87 581.068 356.03C580.268 356.21 579.318 356.3 578.218 356.3C576.698 356.3 575.348 355.99 574.168 355.37C573.008 354.75 572.098 353.83 571.438 352.61C570.798 351.37 570.478 349.86 570.478 348.08C570.478 346.32 570.768 344.81 571.348 343.55C571.948 342.29 572.778 341.32 573.838 340.64C574.918 339.96 576.168 339.62 577.588 339.62ZM577.558 341.78C576.298 341.78 575.298 342.19 574.558 343.01C573.838 343.81 573.408 344.93 573.268 346.37H581.458C581.458 345.45 581.318 344.65 581.038 343.97C580.758 343.29 580.328 342.76 579.748 342.38C579.188 341.98 578.458 341.78 577.558 341.78ZM592.122 347.78L586.572 339.92H589.572L593.712 345.98L597.822 339.92H600.792L595.242 347.78L601.092 356H598.092L593.712 349.58L589.272 356H586.302L592.122 347.78ZM606.831 339.92V346.61H615.561V339.92H618.201V356H615.561V348.83H606.831V356H604.191V339.92H606.831ZM637.272 347.93C637.272 349.27 637.092 350.46 636.732 351.5C636.392 352.52 635.892 353.39 635.232 354.11C634.592 354.83 633.802 355.38 632.862 355.76C631.942 356.12 630.912 356.3 629.772 356.3C628.712 356.3 627.732 356.12 626.832 355.76C625.932 355.38 625.152 354.83 624.492 354.11C623.832 353.39 623.312 352.52 622.932 351.5C622.572 350.46 622.392 349.27 622.392 347.93C622.392 346.15 622.692 344.65 623.292 343.43C623.892 342.19 624.752 341.25 625.872 340.61C626.992 339.95 628.322 339.62 629.862 339.62C631.322 339.62 632.602 339.95 633.702 340.61C634.822 341.25 635.692 342.19 636.312 343.43C636.952 344.65 637.272 346.15 637.272 347.93ZM625.122 347.93C625.122 349.19 625.282 350.29 625.602 351.23C625.942 352.15 626.462 352.86 627.162 353.36C627.862 353.86 628.752 354.11 629.832 354.11C630.912 354.11 631.802 353.86 632.502 353.36C633.202 352.86 633.712 352.15 634.032 351.23C634.372 350.29 634.542 349.19 634.542 347.93C634.542 346.65 634.372 345.56 634.032 344.66C633.692 343.76 633.172 343.07 632.472 342.59C631.792 342.09 630.902 341.84 629.802 341.84C628.162 341.84 626.972 342.38 626.232 343.46C625.492 344.54 625.122 346.03 625.122 347.93ZM653.696 356H651.026V342.11H646.286C646.086 344.65 645.836 346.82 645.536 348.62C645.236 350.4 644.856 351.85 644.396 352.97C643.936 354.09 643.386 354.91 642.746 355.43C642.106 355.95 641.356 356.21 640.496 356.21C640.236 356.21 639.976 356.19 639.716 356.15C639.476 356.13 639.276 356.08 639.116 356V354.02C639.236 354.06 639.366 354.09 639.506 354.11C639.646 354.13 639.786 354.14 639.926 354.14C640.366 354.14 640.766 353.96 641.126 353.6C641.486 353.24 641.806 352.69 642.086 351.95C642.386 351.21 642.656 350.28 642.896 349.16C643.136 348.02 643.346 346.68 643.526 345.14C643.706 343.6 643.866 341.86 644.006 339.92H653.696V356ZM672.78 347.93C672.78 349.27 672.6 350.46 672.24 351.5C671.9 352.52 671.4 353.39 670.74 354.11C670.1 354.83 669.31 355.38 668.37 355.76C667.45 356.12 666.42 356.3 665.28 356.3C664.22 356.3 663.24 356.12 662.34 355.76C661.44 355.38 660.66 354.83 660 354.11C659.34 353.39 658.82 352.52 658.44 351.5C658.08 350.46 657.9 349.27 657.9 347.93C657.9 346.15 658.2 344.65 658.8 343.43C659.4 342.19 660.26 341.25 661.38 340.61C662.5 339.95 663.83 339.62 665.37 339.62C666.83 339.62 668.11 339.95 669.21 340.61C670.33 341.25 671.2 342.19 671.82 343.43C672.46 344.65 672.78 346.15 672.78 347.93ZM660.63 347.93C660.63 349.19 660.79 350.29 661.11 351.23C661.45 352.15 661.97 352.86 662.67 353.36C663.37 353.86 664.26 354.11 665.34 354.11C666.42 354.11 667.31 353.86 668.01 353.36C668.71 352.86 669.22 352.15 669.54 351.23C669.88 350.29 670.05 349.19 670.05 347.93C670.05 346.65 669.88 345.56 669.54 344.66C669.2 343.76 668.68 343.07 667.98 342.59C667.3 342.09 666.41 341.84 665.31 341.84C663.67 341.84 662.48 342.38 661.74 343.46C661 344.54 660.63 346.03 660.63 347.93ZM686.774 339.92V342.14H679.604V356H676.964V339.92H686.774ZM692.433 349.73C692.433 349.91 692.423 350.17 692.403 350.51C692.403 350.83 692.393 351.18 692.373 351.56C692.353 351.92 692.333 352.27 692.313 352.61C692.293 352.93 692.273 353.19 692.253 353.39L700.863 339.92H704.103V356H701.643V346.52C701.643 346.2 701.643 345.78 701.643 345.26C701.663 344.74 701.683 344.23 701.703 343.73C701.723 343.21 701.743 342.82 701.763 342.56L693.213 356H689.943V339.92H692.433V349.73ZM711.71 349.73C711.71 349.91 711.7 350.17 711.68 350.51C711.68 350.83 711.67 351.18 711.65 351.56C711.63 351.92 711.61 352.27 711.59 352.61C711.57 352.93 711.55 353.19 711.53 353.39L720.14 339.92H723.38V356H720.92V346.52C720.92 346.2 720.92 345.78 720.92 345.26C720.94 344.74 720.96 344.23 720.98 343.73C721 343.21 721.02 342.82 721.04 342.56L712.49 356H709.22V339.92H711.71V349.73ZM748.23 339.92V353.78H750.57V361.58H748.02V356H736.83V361.58H734.31V353.78H735.6C736.52 352.5 737.28 351.11 737.88 349.61C738.5 348.09 738.96 346.51 739.26 344.87C739.58 343.21 739.75 341.56 739.77 339.92H748.23ZM742.11 341.99C742.03 343.35 741.82 344.76 741.48 346.22C741.14 347.66 740.7 349.04 740.16 350.36C739.64 351.68 739.03 352.82 738.33 353.78H745.68V341.99H742.11ZM765.962 356H763.292V342.11H758.552C758.352 344.65 758.102 346.82 757.802 348.62C757.502 350.4 757.122 351.85 756.662 352.97C756.202 354.09 755.652 354.91 755.012 355.43C754.372 355.95 753.622 356.21 752.762 356.21C752.502 356.21 752.242 356.19 751.982 356.15C751.742 356.13 751.542 356.08 751.382 356V354.02C751.502 354.06 751.632 354.09 751.772 354.11C751.912 354.13 752.052 354.14 752.192 354.14C752.632 354.14 753.032 353.96 753.392 353.6C753.752 353.24 754.072 352.69 754.352 351.95C754.652 351.21 754.922 350.28 755.162 349.16C755.402 348.02 755.612 346.68 755.792 345.14C755.972 343.6 756.132 341.86 756.272 339.92H765.962V356ZM772.056 356H768.996L773.586 349.25C772.966 349.09 772.366 348.84 771.786 348.5C771.206 348.14 770.736 347.65 770.376 347.03C770.016 346.39 769.836 345.6 769.836 344.66C769.836 343.12 770.356 341.95 771.396 341.15C772.436 340.33 773.816 339.92 775.536 339.92H782.736V356H780.096V349.61H776.196L772.056 356ZM772.386 344.69C772.386 345.61 772.726 346.3 773.406 346.76C774.106 347.2 775.076 347.42 776.316 347.42H780.096V342.11H775.806C774.586 342.11 773.706 342.35 773.166 342.83C772.646 343.31 772.386 343.93 772.386 344.69ZM808.546 343.97C808.546 344.97 808.246 345.75 807.646 346.31C807.046 346.87 806.276 347.25 805.336 347.45V347.57C806.336 347.71 807.206 348.07 807.946 348.65C808.686 349.21 809.056 350.09 809.056 351.29C809.056 351.97 808.926 352.6 808.666 353.18C808.426 353.76 808.046 354.26 807.526 354.68C807.006 355.1 806.336 355.43 805.516 355.67C804.696 355.89 803.706 356 802.546 356H795.616V339.92H802.516C803.656 339.92 804.676 340.05 805.576 340.31C806.496 340.55 807.216 340.97 807.736 341.57C808.276 342.15 808.546 342.95 808.546 343.97ZM806.326 351.29C806.326 350.37 805.976 349.71 805.276 349.31C804.576 348.91 803.546 348.71 802.186 348.71H798.256V353.87H802.246C803.566 353.87 804.576 353.68 805.276 353.3C805.976 352.9 806.326 352.23 806.326 351.29ZM805.876 344.3C805.876 343.54 805.596 342.99 805.036 342.65C804.496 342.29 803.606 342.11 802.366 342.11H798.256V346.52H801.886C803.186 346.52 804.176 346.34 804.856 345.98C805.536 345.62 805.876 345.06 805.876 344.3ZM818.992 339.65C820.952 339.65 822.402 340.08 823.342 340.94C824.282 341.8 824.752 343.17 824.752 345.05V356H822.832L822.322 353.72H822.202C821.742 354.3 821.262 354.79 820.762 355.19C820.282 355.57 819.722 355.85 819.082 356.03C818.462 356.21 817.702 356.3 816.802 356.3C815.842 356.3 814.972 356.13 814.192 355.79C813.432 355.45 812.832 354.93 812.392 354.23C811.952 353.51 811.732 352.61 811.732 351.53C811.732 349.93 812.362 348.7 813.622 347.84C814.882 346.96 816.822 346.48 819.442 346.4L822.172 346.31V345.35C822.172 344.01 821.882 343.08 821.302 342.56C820.722 342.04 819.902 341.78 818.842 341.78C818.002 341.78 817.202 341.91 816.442 342.17C815.682 342.41 814.972 342.69 814.312 343.01L813.502 341.03C814.202 340.65 815.032 340.33 815.992 340.07C816.952 339.79 817.952 339.65 818.992 339.65ZM819.772 348.23C817.772 348.31 816.382 348.63 815.602 349.19C814.842 349.75 814.462 350.54 814.462 351.56C814.462 352.46 814.732 353.12 815.272 353.54C815.832 353.96 816.542 354.17 817.402 354.17C818.762 354.17 819.892 353.8 820.792 353.06C821.692 352.3 822.142 351.14 822.142 349.58V348.14L819.772 348.23ZM836.168 356.3C834.748 356.3 833.478 356.01 832.358 355.43C831.258 354.85 830.388 353.95 829.748 352.73C829.128 351.51 828.818 349.95 828.818 348.05C828.818 346.07 829.148 344.46 829.808 343.22C830.468 341.98 831.358 341.07 832.478 340.49C833.618 339.91 834.908 339.62 836.348 339.62C837.168 339.62 837.958 339.71 838.718 339.89C839.478 340.05 840.098 340.25 840.578 340.49L839.768 342.68C839.288 342.5 838.728 342.33 838.088 342.17C837.448 342.01 836.848 341.93 836.288 341.93C835.208 341.93 834.318 342.16 833.618 342.62C832.918 343.08 832.398 343.76 832.058 344.66C831.718 345.56 831.548 346.68 831.548 348.02C831.548 349.3 831.718 350.39 832.058 351.29C832.398 352.19 832.908 352.87 833.588 353.33C834.268 353.79 835.118 354.02 836.138 354.02C837.018 354.02 837.788 353.93 838.448 353.75C839.128 353.57 839.748 353.35 840.308 353.09V355.43C839.768 355.71 839.168 355.92 838.508 356.06C837.868 356.22 837.088 356.3 836.168 356.3ZM854.415 349.73C854.415 349.91 854.405 350.17 854.385 350.51C854.385 350.83 854.375 351.18 854.355 351.56C854.335 351.92 854.315 352.27 854.295 352.61C854.275 352.93 854.255 353.19 854.235 353.39L862.845 339.92H866.085V356H863.625V346.52C863.625 346.2 863.625 345.78 863.625 345.26C863.645 344.74 863.665 344.23 863.685 343.73C863.705 343.21 863.725 342.82 863.745 342.56L855.195 356H851.925V339.92H854.415V349.73ZM405.48 386.97C405.48 387.97 405.18 388.75 404.58 389.31C403.98 389.87 403.21 390.25 402.27 390.45V390.57C403.27 390.71 404.14 391.07 404.88 391.65C405.62 392.21 405.99 393.09 405.99 394.29C405.99 394.97 405.86 395.6 405.6 396.18C405.36 396.76 404.98 397.26 404.46 397.68C403.94 398.1 403.27 398.43 402.45 398.67C401.63 398.89 400.64 399 399.48 399H392.55V382.92H399.45C400.59 382.92 401.61 383.05 402.51 383.31C403.43 383.55 404.15 383.97 404.67 384.57C405.21 385.15 405.48 385.95 405.48 386.97ZM403.26 394.29C403.26 393.37 402.91 392.71 402.21 392.31C401.51 391.91 400.48 391.71 399.12 391.71H395.19V396.87H399.18C400.5 396.87 401.51 396.68 402.21 396.3C402.91 395.9 403.26 395.23 403.26 394.29ZM402.81 387.3C402.81 386.54 402.53 385.99 401.97 385.65C401.43 385.29 400.54 385.11 399.3 385.11H395.19V389.52H398.82C400.12 389.52 401.11 389.34 401.79 388.98C402.47 388.62 402.81 388.06 402.81 387.3ZM415.925 382.65C417.885 382.65 419.335 383.08 420.275 383.94C421.215 384.8 421.685 386.17 421.685 388.05V399H419.765L419.255 396.72H419.135C418.675 397.3 418.195 397.79 417.695 398.19C417.215 398.57 416.655 398.85 416.015 399.03C415.395 399.21 414.635 399.3 413.735 399.3C412.775 399.3 411.905 399.13 411.125 398.79C410.365 398.45 409.765 397.93 409.325 397.23C408.885 396.51 408.665 395.61 408.665 394.53C408.665 392.93 409.295 391.7 410.555 390.84C411.815 389.96 413.755 389.48 416.375 389.4L419.105 389.31V388.35C419.105 387.01 418.815 386.08 418.235 385.56C417.655 385.04 416.835 384.78 415.775 384.78C414.935 384.78 414.135 384.91 413.375 385.17C412.615 385.41 411.905 385.69 411.245 386.01L410.435 384.03C411.135 383.65 411.965 383.33 412.925 383.07C413.885 382.79 414.885 382.65 415.925 382.65ZM416.705 391.23C414.705 391.31 413.315 391.63 412.535 392.19C411.775 392.75 411.395 393.54 411.395 394.56C411.395 395.46 411.665 396.12 412.205 396.54C412.765 396.96 413.475 397.17 414.335 397.17C415.695 397.17 416.825 396.8 417.725 396.06C418.625 395.3 419.075 394.14 419.075 392.58V391.14L416.705 391.23ZM448.462 382.92V399H426.652V382.92H429.292V396.78H436.222V382.92H438.862V396.78H445.822V382.92H448.462ZM456.095 392.73C456.095 392.91 456.085 393.17 456.065 393.51C456.065 393.83 456.055 394.18 456.035 394.56C456.015 394.92 455.995 395.27 455.975 395.61C455.955 395.93 455.935 396.19 455.915 396.39L464.525 382.92H467.765V399H465.305V389.52C465.305 389.2 465.305 388.78 465.305 388.26C465.325 387.74 465.345 387.23 465.365 386.73C465.385 386.21 465.405 385.82 465.425 385.56L456.875 399H453.605V382.92H456.095V392.73ZM476.692 390.78L471.142 382.92H474.142L478.282 388.98L482.392 382.92H485.362L479.812 390.78L485.662 399H482.662L478.282 392.58L473.842 399H470.872L476.692 390.78ZM495.714 389.34C495.714 387 495.944 385.01 496.404 383.37C496.884 381.71 497.614 380.39 498.594 379.41C499.594 378.41 500.874 377.74 502.434 377.4C503.734 377.12 505.004 376.87 506.244 376.65C507.484 376.43 508.644 376.23 509.724 376.05L510.174 378.36C509.654 378.44 509.074 378.54 508.434 378.66C507.794 378.76 507.144 378.87 506.484 378.99C505.824 379.09 505.184 379.2 504.564 379.32C503.964 379.42 503.434 379.52 502.974 379.62C502.314 379.76 501.724 380 501.204 380.34C500.684 380.66 500.234 381.1 499.854 381.66C499.494 382.22 499.204 382.91 498.984 383.73C498.764 384.55 498.634 385.52 498.594 386.64H498.774C499.054 386.26 499.434 385.87 499.914 385.47C500.414 385.07 501.004 384.73 501.684 384.45C502.384 384.17 503.174 384.03 504.054 384.03C505.454 384.03 506.614 384.34 507.534 384.96C508.474 385.56 509.174 386.4 509.634 387.48C510.114 388.56 510.354 389.82 510.354 391.26C510.354 393.04 510.044 394.53 509.424 395.73C508.804 396.93 507.944 397.83 506.844 398.43C505.744 399.01 504.464 399.3 503.004 399.3C501.904 399.3 500.904 399.09 500.004 398.67C499.104 398.23 498.334 397.59 497.694 396.75C497.054 395.91 496.564 394.87 496.224 393.63C495.884 392.39 495.714 390.96 495.714 389.34ZM503.214 397.11C504.094 397.11 504.854 396.93 505.494 396.57C506.154 396.21 506.664 395.62 507.024 394.8C507.384 393.98 507.564 392.89 507.564 391.53C507.564 389.89 507.254 388.6 506.634 387.66C506.034 386.7 505.034 386.22 503.634 386.22C502.754 386.22 501.954 386.42 501.234 386.82C500.514 387.2 499.914 387.64 499.434 388.14C498.954 388.64 498.614 389.06 498.414 389.4C498.414 390.38 498.484 391.33 498.624 392.25C498.764 393.17 499.004 394 499.344 394.74C499.704 395.46 500.194 396.04 500.814 396.48C501.454 396.9 502.254 397.11 503.214 397.11ZM526.753 399H524.083V385.11H519.343C519.143 387.65 518.893 389.82 518.593 391.62C518.293 393.4 517.913 394.85 517.453 395.97C516.993 397.09 516.443 397.91 515.803 398.43C515.163 398.95 514.413 399.21 513.553 399.21C513.293 399.21 513.033 399.19 512.773 399.15C512.533 399.13 512.333 399.08 512.173 399V397.02C512.293 397.06 512.423 397.09 512.563 397.11C512.703 397.13 512.843 397.14 512.983 397.14C513.423 397.14 513.823 396.96 514.183 396.6C514.543 396.24 514.863 395.69 515.143 394.95C515.443 394.21 515.713 393.28 515.953 392.16C516.193 391.02 516.403 389.68 516.583 388.14C516.763 386.6 516.923 384.86 517.063 382.92H526.753V399ZM534.347 392.73C534.347 392.91 534.337 393.17 534.317 393.51C534.317 393.83 534.307 394.18 534.287 394.56C534.267 394.92 534.247 395.27 534.227 395.61C534.207 395.93 534.187 396.19 534.167 396.39L542.777 382.92H546.017V399H543.557V389.52C543.557 389.2 543.557 388.78 543.557 388.26C543.577 387.74 543.597 387.23 543.617 386.73C543.637 386.21 543.657 385.82 543.677 385.56L535.127 399H531.857V382.92H534.347V392.73ZM555.364 382.62C556.584 382.62 557.644 382.79 558.544 383.13C559.444 383.45 560.144 383.93 560.644 384.57C561.144 385.19 561.394 385.95 561.394 386.85C561.394 387.83 561.124 388.61 560.584 389.19C560.044 389.75 559.304 390.16 558.364 390.42V390.54C559.004 390.72 559.594 390.97 560.134 391.29C560.674 391.61 561.104 392.03 561.424 392.55C561.764 393.07 561.934 393.74 561.934 394.56C561.934 395.44 561.684 396.24 561.184 396.96C560.704 397.68 559.954 398.25 558.934 398.67C557.934 399.09 556.644 399.3 555.064 399.3C554.304 399.3 553.574 399.26 552.874 399.18C552.194 399.1 551.574 398.98 551.014 398.82C550.474 398.66 549.994 398.47 549.574 398.25V395.88C550.254 396.2 551.054 396.49 551.974 396.75C552.914 397.01 553.934 397.14 555.034 397.14C555.834 397.14 556.554 397.05 557.194 396.87C557.854 396.69 558.374 396.41 558.754 396.03C559.134 395.63 559.324 395.09 559.324 394.41C559.324 393.79 559.154 393.29 558.814 392.91C558.474 392.51 557.964 392.21 557.284 392.01C556.624 391.81 555.774 391.71 554.734 391.71H552.574V389.55H554.314C555.694 389.55 556.794 389.37 557.614 389.01C558.454 388.63 558.874 387.99 558.874 387.09C558.874 386.33 558.554 385.76 557.914 385.38C557.294 385 556.394 384.81 555.214 384.81C554.334 384.81 553.554 384.9 552.874 385.08C552.214 385.24 551.484 385.49 550.684 385.83L549.754 383.73C550.614 383.35 551.514 383.07 552.454 382.89C553.394 382.71 554.364 382.62 555.364 382.62ZM575.351 382.92H578.231L571.361 390.66L578.801 399H575.741L568.481 390.84V399H565.841V382.92H568.481V390.72L575.351 382.92ZM584.21 392.73C584.21 392.91 584.2 393.17 584.18 393.51C584.18 393.83 584.17 394.18 584.15 394.56C584.13 394.92 584.11 395.27 584.09 395.61C584.07 395.93 584.05 396.19 584.03 396.39L592.64 382.92H595.88V399H593.42V389.52C593.42 389.2 593.42 388.78 593.42 388.26C593.44 387.74 593.46 387.23 593.48 386.73C593.5 386.21 593.52 385.82 593.54 385.56L584.99 399H581.72V382.92H584.21V392.73ZM604.807 390.78L599.257 382.92H602.257L606.397 388.98L610.507 382.92H613.477L607.927 390.78L613.777 399H610.777L606.397 392.58L601.957 399H598.987L604.807 390.78Z" fill="black"/>
<defs>
<filter id="filter0_f_22_442" x="758" y="12" width="738" height="728" filterUnits="userSpaceOnUse" color-interpolation-filters="sRGB">
<feFlood flood-opacity="0" result="BackgroundImageFix"/>
<feBlend mode="normal" in="SourceGraphic" in2="BackgroundImageFix" result="shape"/>
<feGaussianBlur stdDeviation="125" result="effect1_foregroundBlur_22_442"/>
</filter>
<filter id="filter1_f_22_442" x="832" y="62.5505" width="695" height="675.436" filterUnits="userSpaceOnUse" color-interpolation-filters="sRGB">
<feFlood flood-opacity="0" result="BackgroundImageFix"/>
<feBlend mode="normal" in="SourceGraphic" in2="BackgroundImageFix" result="shape"/>
<feGaussianBlur stdDeviation="125" result="effect1_foregroundBlur_22_442"/>
</filter>
<filter id="filter2_f_22_442" x="832" y="63" width="695" height="675.436" filterUnits="userSpaceOnUse" color-interpolation-filters="sRGB">
<feFlood flood-opacity="0" result="BackgroundImageFix"/>
<feBlend mode="normal" in="SourceGraphic" in2="BackgroundImageFix" result="shape"/>
<feGaussianBlur stdDeviation="125" result="effect1_foregroundBlur_22_442"/>
</filter>
<filter id="filter3_f_22_442" x="127" y="11" width="738" height="728" filterUnits="userSpaceOnUse" color-interpolation-filters="sRGB">
<feFlood flood-opacity="0" result="BackgroundImageFix"/>
<feBlend mode="normal" in="SourceGraphic" in2="BackgroundImageFix" result="shape"/>
<feGaussianBlur stdDeviation="125" result="effect1_foregroundBlur_22_442"/>
</filter>
<filter id="filter4_f_22_442" x="0" y="0.5" width="639.643" height="728" filterUnits="userSpaceOnUse" color-interpolation-filters="sRGB">
<feFlood flood-opacity="0" result="BackgroundImageFix"/>
<feBlend mode="normal" in="SourceGraphic" in2="BackgroundImageFix" result="shape"/>
<feGaussianBlur stdDeviation="125" result="effect1_foregroundBlur_22_442"/>
</filter>
</defs>
</svg>
