<svg width="17" height="17" viewBox="0 0 17 17" fill="none" xmlns="http://www.w3.org/2000/svg">
<path d="M16.9557 6.59931C16.6312 6.94777 16.3165 7.29623 15.9881 7.63059C15.106 8.53095 14.2143 9.42325 13.3264 10.3176C13.1865 10.4586 13.0369 10.5935 12.9086 10.7486C12.8581 10.8111 12.8251 10.9218 12.8387 11.0004C13.1612 12.9884 13.4896 14.9745 13.8179 16.9625C13.8199 16.9706 13.8179 16.9806 13.816 16.9947C13.8121 17.0129 13.7305 16.9826 13.6314 16.9283C13.2875 16.743 12.9494 16.5597 12.6114 16.3743C11.2727 15.6452 9.93214 14.916 8.59737 14.1809C8.4808 14.1164 8.40114 14.1466 8.30011 14.201C6.62728 15.1155 4.95446 16.0279 3.27969 16.9403C3.25055 16.9565 3.2214 16.9706 3.19032 16.9847C3.1398 17.0088 3.11454 16.9343 3.13397 16.8195C3.20975 16.3502 3.28163 15.8929 3.35741 15.4377C3.60415 13.9472 3.85673 12.4587 4.09765 10.9682C4.1093 10.8977 4.06073 10.7929 4.00827 10.7385C3.1398 9.85228 2.25967 8.98012 1.39897 8.08581C0.928796 7.59635 0.481932 7.08272 0.0428397 6.59326C-0.0329329 6.50867 -0.00573237 6.42608 0.105012 6.40796C0.336216 6.3717 0.604334 6.3294 0.874395 6.28912C2.04984 6.11186 3.22723 5.93461 4.40268 5.75535C4.79708 5.69492 5.18955 5.62442 5.5859 5.58212C5.7355 5.56601 5.80739 5.50155 5.86956 5.36861C6.68946 3.63437 7.51518 1.90213 8.33897 0.169895C8.35645 0.131625 8.37588 0.0953685 8.39725 0.055084C8.43028 -0.00735705 8.4808 -0.0194424 8.51188 0.0329275C8.53131 0.0651551 8.5488 0.0953686 8.56434 0.127596C9.39784 1.87796 10.2333 3.62832 11.0629 5.38271C11.1231 5.50961 11.1911 5.56399 11.331 5.58414C13.0563 5.83994 14.7796 6.10381 16.5049 6.36566C16.6351 6.3858 16.7653 6.40393 16.8954 6.42205C17.0062 6.43414 17.0334 6.51471 16.9557 6.59931Z" fill="#FFF500"/>
</svg>
