<svg width="26" height="26" viewBox="0 0 26 26" fill="none" xmlns="http://www.w3.org/2000/svg">
<path d="M19.1984 1.69234C17.1652 2.96374 15.067 1.88994 13.5564 1.69234C6.88222 0.816141 4.76062 8.60054 9.62262 11.7231C8.37202 12.3705 8.45262 15.6725 9.79422 16.1431C6.63782 16.5019 6.05022 20.9557 7.74542 22.7731C9.80722 24.9831 16.146 24.8349 18.005 22.7731C19.305 21.3327 19.4844 18.3635 18.3456 16.9959C17.3082 15.7479 12.1108 15.5581 12.1888 13.5951C12.246 12.2223 14.1258 12.4407 15.2672 11.8947C17.4148 10.8677 18.6732 7.79714 17.8308 5.43374C18.3118 5.34274 18.72 5.18414 19.1984 5.09574V1.69234ZM10.9928 8.83454C8.49162 3.38494 16.7466 3.77494 14.2402 8.83454C13.4186 9.44294 11.8014 9.50274 10.9928 8.83454ZM15.6078 19.5413C15.8288 21.9879 10.8784 22.0945 10.3064 20.3915C9.82542 18.9589 10.4234 18.5507 11.843 18.1815C13.455 17.7629 15.4596 17.9059 15.6078 19.5413Z" fill="black"/>
</svg>
