<svg width="26" height="26" viewBox="0 0 26 26" fill="none" xmlns="http://www.w3.org/2000/svg">
<path d="M13 1.625C6.7184 1.625 1.625 6.7184 1.625 13C1.625 19.2816 6.7184 24.375 13 24.375C19.2816 24.375 24.375 19.2816 24.375 13C24.375 6.7184 19.2816 1.625 13 1.625ZM16.5022 18.4106C16.5022 18.4106 16.2188 19.1204 15.4362 18.7798L12.5372 16.5568L10.7562 15.1632L10.764 15.0982C10.764 15.0982 15.964 10.4234 16.1772 10.2258L16.3202 9.984C16.3332 9.7422 15.9354 9.984 15.9354 9.984L9.0454 14.3598L6.175 13.3926C6.175 13.3926 5.733 13.2366 5.6914 12.896C5.6498 12.5554 6.188 12.3708 6.188 12.3708L17.5968 7.8962C17.5968 7.8962 18.5354 7.4854 18.5354 8.1666L16.5022 18.4106Z" fill="black"/>
</svg>
